# 3ds Max Wavefront OBJ Exporter v0.97b - (c)2007 guruware
# File Created: 14.03.2014 17:05:47

mtllib poster.mtl

#
# object Plane001
#

v  0.0499 0.6804 3.6776
v  0.0499 1.2085 3.6776
v  0.0499 1.2085 3.2296
v  0.0499 0.6804 3.2296
v  0.0499 1.2085 2.7817
v  0.0499 0.6804 2.7817
v  0.0499 1.2085 2.3338
v  0.0499 0.6804 2.3338
v  0.0499 1.2085 1.8859
v  0.0499 0.6804 1.8859
v  0.0499 1.7365 3.6776
v  0.0499 1.7365 3.2296
v  0.0499 1.7365 2.7817
v  0.0499 1.7365 2.3338
v  0.0499 1.7365 1.8859
v  0.0499 2.2645 3.6776
v  0.0499 2.2645 3.2296
v  0.0499 2.2645 2.7817
v  0.0499 2.2645 2.3338
v  0.0499 2.2645 1.8859
v  0.0499 2.7926 3.6776
v  0.0499 2.7926 3.2296
v  0.0499 2.7926 2.7817
v  0.0499 2.7926 2.3338
v  0.0499 2.7926 1.8859
# 25 vertices

vn -1.0000 0.0000 0.0000
# 1 vertex normals

vt 0.0000 0.0000 0.0000
vt 0.0000 0.2500 0.0000
vt -0.2500 0.2500 0.0000
vt -0.2500 0.0000 0.0000
vt -0.5000 0.2500 0.0000
vt -0.5000 0.0000 0.0000
vt -0.7500 0.2500 0.0000
vt -0.7500 0.0000 0.0000
vt -1.0000 0.2500 0.0000
vt -1.0000 0.0000 0.0000
vt 0.0000 0.5000 0.0000
vt -0.2500 0.5000 0.0000
vt -0.5000 0.5000 0.0000
vt -0.7500 0.5000 0.0000
vt -1.0000 0.5000 0.0000
vt 0.0000 0.7500 0.0000
vt -0.2500 0.7500 0.0000
vt -0.5000 0.7500 0.0000
vt -0.7500 0.7500 0.0000
vt -1.0000 0.7500 0.0000
vt 0.0000 1.0000 0.0000
vt -0.2500 1.0000 0.0000
vt -0.5000 1.0000 0.0000
vt -0.7500 1.0000 0.0000
vt -1.0000 1.0000 0.0000
# 25 texture coords

g Plane001
usemtl poster02
s 1
f 1/1/1 2/2/1 3/3/1 
f 3/3/1 4/4/1 1/1/1 
f 4/4/1 3/3/1 5/5/1 
f 5/5/1 6/6/1 4/4/1 
f 6/6/1 5/5/1 7/7/1 
f 7/7/1 8/8/1 6/6/1 
f 8/8/1 7/7/1 9/9/1 
f 9/9/1 10/10/1 8/8/1 
f 2/2/1 11/11/1 12/12/1 
f 12/12/1 3/3/1 2/2/1 
f 3/3/1 12/12/1 13/13/1 
f 13/13/1 5/5/1 3/3/1 
f 5/5/1 13/13/1 14/14/1 
f 14/14/1 7/7/1 5/5/1 
f 7/7/1 14/14/1 15/15/1 
f 15/15/1 9/9/1 7/7/1 
f 11/11/1 16/16/1 17/17/1 
f 17/17/1 12/12/1 11/11/1 
f 12/12/1 17/17/1 18/18/1 
f 18/18/1 13/13/1 12/12/1 
f 13/13/1 18/18/1 19/19/1 
f 19/19/1 14/14/1 13/13/1 
f 14/14/1 19/19/1 20/20/1 
f 20/20/1 15/15/1 14/14/1 
f 16/16/1 21/21/1 22/22/1 
f 22/22/1 17/17/1 16/16/1 
f 17/17/1 22/22/1 23/23/1 
f 23/23/1 18/18/1 17/17/1 
f 18/18/1 23/23/1 24/24/1 
f 24/24/1 19/19/1 18/18/1 
f 19/19/1 24/24/1 25/25/1 
f 25/25/1 20/20/1 19/19/1 
# 32 faces

